<svg id="SvgjsSvg1001" width="288" height="288" xmlns="http://www.w3.org/2000/svg" version="1.1" xmlns:xlink="http://www.w3.org/1999/xlink" xmlns:svgjs="http://svgjs.com/svgjs"><defs id="SvgjsDefs1002"></defs><g id="SvgjsG1008"><svg xmlns="http://www.w3.org/2000/svg" fill-rule="evenodd" clip-rule="evenodd" image-rendering="optimizeQuality" shape-rendering="geometricPrecision" text-rendering="geometricPrecision" viewBox="0 0 512 512" width="288" height="288"><path d="M 36.5,-0.5 C 41.5,-0.5 46.5,-0.5 51.5,-0.5C 55.7995,0.931677 59.7995,3.09834 63.5,6C 127.347,70.0136 191.347,133.847 255.5,197.5C 319.653,133.847 383.653,70.0136 447.5,6C 451.2,3.09834 455.2,0.931677 459.5,-0.5C 464.5,-0.5 469.5,-0.5 474.5,-0.5C 477.408,0.95406 480.408,2.45406 483.5,4C 491.333,11.8333 499.167,19.6667 507,27.5C 508.546,30.5919 510.046,33.5919 511.5,36.5C 511.5,41.5 511.5,46.5 511.5,51.5C 510.068,55.7995 507.902,59.7995 505,63.5C 440.986,127.347 377.153,191.347 313.5,255.5C 377.153,319.653 440.986,383.653 505,447.5C 507.902,451.2 510.068,455.2 511.5,459.5C 511.5,464.5 511.5,469.5 511.5,474.5C 510.046,477.408 508.546,480.408 507,483.5C 499.167,491.333 491.333,499.167 483.5,507C 480.408,508.546 477.408,510.046 474.5,511.5C 469.5,511.5 464.5,511.5 459.5,511.5C 455.2,510.068 451.2,507.902 447.5,505C 383.653,440.986 319.653,377.153 255.5,313.5C 191.347,377.153 127.347,440.986 63.5,505C 59.7995,507.902 55.7995,510.068 51.5,511.5C 46.5,511.5 41.5,511.5 36.5,511.5C 33.5919,510.046 30.5919,508.546 27.5,507C 19.6667,499.167 11.8333,491.333 4,483.5C 2.45406,480.408 0.95406,477.408 -0.5,474.5C -0.5,469.5 -0.5,464.5 -0.5,459.5C 0.931677,455.2 3.09834,451.2 6,447.5C 70.0136,383.653 133.847,319.653 197.5,255.5C 133.847,191.347 70.0136,127.347 6,63.5C 3.53607,59.5661 1.36941,55.5661 -0.5,51.5C -0.5,46.5 -0.5,41.5 -0.5,36.5C 0.95406,33.5919 2.45406,30.5919 4,27.5C 11.8333,19.6667 19.6667,11.8333 27.5,4C 30.5919,2.45406 33.5919,0.95406 36.5,-0.5 Z" opacity=".981" fill="#ffffff" class="color000 svgShape"></path></svg></g></svg>